<?xml version="1.0" encoding="utf-8"?>
<!-- Generator: Adobe Illustrator 18.1.0, SVG Export Plug-In . SVG Version: 6.00 Build 0)  -->
<svg version="1.1" id="Layer_1" xmlns="http://www.w3.org/2000/svg" xmlns:xlink="http://www.w3.org/1999/xlink" x="0px" y="0px"
	 viewBox="0 0 1500 1500" enable-background="new 0 0 1500 1500" xml:space="preserve">
<g>
	<path fill="none" d="M807.9,560.7c-7.9,1-13.5,8.1-12.5,16c1,7.9,8.1,13.4,16,12.5c7.9-1,13.5-8.1,12.5-16
		C822.9,565.4,815.8,559.8,807.9,560.7z"/>
	<path fill="#00B6E3" d="M514.7,758.6c0,0,82.2-92.3-33.5-149.5C365.5,551.9,189.7,427.7,185.4,351
		C185.4,351,124.6,606.6,514.7,758.6z"/>
	<path fill="#00B6E3" d="M324.8,685.5C216.4,614.7,212,546.8,212,546.8c-4.3,258,295.7,363.3,290.9,356.1
		c-28.6-42.1-3-118.1-3-118.1S433.1,756.3,324.8,685.5z"/>
	<path fill="#006DB6" d="M313.6,458.3c193.7,125.1,314.3,159.1,253.7,268.3c-60.6,109.2-77.2,198,92.1,254.2
		c0,0-118.3-60.2-58-158.6c60.3-98.4,181-233.4-57.1-360.8C266.6,312.8,210.9,153.7,210.9,153.7S119.9,333.3,313.6,458.3z"/>
	<path fill="#006DB6" d="M1051.3,783.9C859.1,714.6,840.4,852.7,813,937.8c-27.4,85-101.7,62.7-101.7,62.7
		c116.6,67,140.8-1.9,174.3-92.7c33.5-90.8,113.1-39.9,281.9,5.4c168.8,45.3,228.2-99,228.2-99S1275.5,864.7,1051.3,783.9z"/>
	<path fill="#00B6E3" d="M996.7,896c-90.7-36.1-103.6,58.2-103.6,58.2c281.8,142.9,400.4-23.6,400.4-23.6
		C1246.7,967.7,1087.3,932.1,996.7,896z"/>
	<path fill="#00B6E3" d="M1029.7,1024.1c-94.9-24.9-144.6-48-144.6-48s-24.5,51.1-63.1,56.6c-6.5,0.9,196.4,119.5,344.4-16.2
		C1166.4,1016.6,1124.7,1049.1,1029.7,1024.1z"/>
	<path fill="#00B6E3" d="M829.4,645.2c-2.3,0.2-4.5,0.3-6.7,0.2c-59,205.9-173.1,410.1-306,526.5
		c-195.1,170.9-366.4,88.3-373.6-183.7c-2.5,28-3.6,55.4-3.2,82c4.2,273,173.8,357,367.1,187.7c151-132.3,277.5-380.2,323.6-612.5
		C830.2,645.3,829.8,645.2,829.4,645.2z"/>
	<path fill="#C07775" d="M831.4,645.1c27.3-3.4,46.8-28.3,43.4-55.6c-3.4-27.3-28.3-46.8-55.6-43.4s-46.8,28.3-43.4,55.6
		c3,24.4,23.2,42.4,46.9,43.6c2.2,0.1,4.5,0,6.7-0.2C830.1,645.1,830.8,645.2,831.4,645.1z M811.4,589.2c-7.9,1-15-4.6-16-12.5
		c-1-7.9,4.6-15,12.5-16c7.9-1,15,4.6,16,12.5C824.9,581.1,819.3,588.3,811.4,589.2z"/>
	<path fill="#4EBFE7" d="M211.5,689.7c-0.3-0.6-0.7-1.1-1-1.7c-30.5,86-51.9,174.3-61.2,258.2c16.2-77.3,41-156.1,72.4-231.6
		C218,706.5,214.6,698.3,211.5,689.7z"/>
	<path fill="#4EBFE7" d="M476.7,333.8c195.1-170.9,356.9-88.3,364.1,183.7c2.5-28,3.6-55.4,3.2-82c-4.2-273-164.3-357-357.6-187.7
		c-25.8,22.6-50.9,48.7-75,77.4c13,10.1,26.8,20.3,41.7,30.6C460.9,348.1,468.7,340.7,476.7,333.8z"/>
</g>
</svg>
